<mxfile host="app.diagrams.net" modified="2023-02-05T19:42:52.420Z" agent="5.0 (Windows)" etag="ehsnY9VZevZuxzlU1Mn3" version="20.8.16" type="github">
  <diagram name="Page-1" id="Yc7jpaineD2_hunF8hm_">
    <mxGraphModel dx="1615" dy="2037" grid="1" gridSize="10" guides="1" tooltips="1" connect="1" arrows="1" fold="1" page="1" pageScale="1" pageWidth="827" pageHeight="1169" math="0" shadow="0">
      <root>
        <mxCell id="0" />
        <mxCell id="1" parent="0" />
        <mxCell id="ZGbzCy4regsN6U9j73BN-4" value="Client" style="html=1;overflow=block;blockSpacing=1;shape=umlActor;labelPosition=center;verticalLabelPosition=bottom;verticalAlign=top;whiteSpace=nowrap;fontSize=16.7;fontColor=#333333;align=center;spacing=0;strokeColor=#5e5e5e;strokeOpacity=100;rounded=1;absoluteArcSize=1;arcSize=9;strokeWidth=2.3;lucidId=Zoit8c.qYpQ7;" parent="1" vertex="1">
          <mxGeometry x="10" y="250" width="60" height="135" as="geometry" />
        </mxCell>
        <mxCell id="ZGbzCy4regsN6U9j73BN-7" value="Gerer le profil" style="html=1;overflow=block;blockSpacing=1;whiteSpace=wrap;ellipse;fontSize=13;spacing=3.8;strokeColor=#030303;strokeOpacity=100;rounded=1;absoluteArcSize=1;arcSize=9;strokeWidth=1;lucidId=3sitsereLQRn;" parent="1" vertex="1">
          <mxGeometry x="130" y="-40" width="120" height="50" as="geometry" />
        </mxCell>
        <mxCell id="c7JR0-62WhPeYaqDhO3e-24" style="edgeStyle=none;rounded=0;orthogonalLoop=1;jettySize=auto;html=1;exitX=0;exitY=0.5;exitDx=0;exitDy=0;endArrow=none;endFill=0;" edge="1" parent="1" source="ZGbzCy4regsN6U9j73BN-9">
          <mxGeometry relative="1" as="geometry">
            <mxPoint x="270" as="targetPoint" />
            <Array as="points">
              <mxPoint x="270" y="25" />
            </Array>
          </mxGeometry>
        </mxCell>
        <mxCell id="ZGbzCy4regsN6U9j73BN-9" value="Desactiver le profil" style="html=1;overflow=block;blockSpacing=1;whiteSpace=wrap;ellipse;fontSize=13;spacing=3.8;strokeColor=#000000;strokeOpacity=100;rounded=1;absoluteArcSize=1;arcSize=9;strokeWidth=1;lucidId=jtitNFk_JNwB;" parent="1" vertex="1">
          <mxGeometry x="335" y="10" width="120" height="30" as="geometry" />
        </mxCell>
        <mxCell id="ZGbzCy4regsN6U9j73BN-12" value="Consulter liste ludification" style="html=1;overflow=block;blockSpacing=1;whiteSpace=wrap;ellipse;fontSize=13;spacing=3.8;strokeColor=#5e5e5e;strokeOpacity=100;rounded=1;absoluteArcSize=1;arcSize=9;strokeWidth=2.3;lucidId=AtitZLWRrcX2;" parent="1" vertex="1">
          <mxGeometry x="259.5" y="1070" width="120" height="90" as="geometry" />
        </mxCell>
        <mxCell id="ZGbzCy4regsN6U9j73BN-13" style="edgeStyle=none;rounded=0;orthogonalLoop=1;jettySize=auto;html=1;exitX=0;exitY=0.5;exitDx=0;exitDy=0;entryX=0.995;entryY=0.61;entryDx=0;entryDy=0;fontSize=18;endArrow=block;endFill=0;entryPerimeter=0;" parent="1" source="ZGbzCy4regsN6U9j73BN-14" target="ZGbzCy4regsN6U9j73BN-31" edge="1">
          <mxGeometry relative="1" as="geometry">
            <mxPoint x="567.56528106106" y="1166.7153074572602" as="targetPoint" />
          </mxGeometry>
        </mxCell>
        <mxCell id="ZGbzCy4regsN6U9j73BN-14" value="Ajouter u ami &#39;abonner&#39;" style="html=1;overflow=block;blockSpacing=1;whiteSpace=wrap;ellipse;fontSize=13;spacing=3.8;strokeColor=#5e5e5e;strokeOpacity=100;rounded=1;absoluteArcSize=1;arcSize=9;strokeWidth=2.3;lucidId=yuiteOMJiaQA;" parent="1" vertex="1">
          <mxGeometry x="690" y="920" width="120" height="90" as="geometry" />
        </mxCell>
        <mxCell id="ZGbzCy4regsN6U9j73BN-15" style="edgeStyle=none;rounded=0;orthogonalLoop=1;jettySize=auto;html=1;exitX=0;exitY=0.5;exitDx=0;exitDy=0;entryX=1;entryY=1;entryDx=0;entryDy=0;fontSize=18;endArrow=block;endFill=0;" parent="1" source="ZGbzCy4regsN6U9j73BN-16" target="ZGbzCy4regsN6U9j73BN-31" edge="1">
          <mxGeometry relative="1" as="geometry">
            <mxPoint x="553.0799999999999" y="1175.2299999999996" as="targetPoint" />
          </mxGeometry>
        </mxCell>
        <mxCell id="ZGbzCy4regsN6U9j73BN-16" value="Supprimer un ami" style="html=1;overflow=block;blockSpacing=1;whiteSpace=wrap;ellipse;fontSize=13;spacing=3.8;strokeColor=#5e5e5e;strokeOpacity=100;rounded=1;absoluteArcSize=1;arcSize=9;strokeWidth=2.3;lucidId=Juitxt.MBrJM;" parent="1" vertex="1">
          <mxGeometry x="780" y="1000" width="120" height="90" as="geometry" />
        </mxCell>
        <mxCell id="ZGbzCy4regsN6U9j73BN-17" value="" style="edgeStyle=none;rounded=0;orthogonalLoop=1;jettySize=auto;html=1;fontSize=18;endArrow=block;endFill=0;entryX=0.958;entryY=0.375;entryDx=0;entryDy=0;entryPerimeter=0;" parent="1" source="ZGbzCy4regsN6U9j73BN-18" target="ZGbzCy4regsN6U9j73BN-31" edge="1">
          <mxGeometry relative="1" as="geometry">
            <mxPoint x="583.8493050127047" y="1126.229190118298" as="targetPoint" />
          </mxGeometry>
        </mxCell>
        <mxCell id="ZGbzCy4regsN6U9j73BN-18" value="Consulter la liste des utilisateurs" style="html=1;overflow=block;blockSpacing=1;whiteSpace=wrap;ellipse;fontSize=13;spacing=3.8;strokeColor=#5e5e5e;strokeOpacity=100;rounded=1;absoluteArcSize=1;arcSize=9;strokeWidth=2.3;lucidId=SuitE4AoL12q;" parent="1" vertex="1">
          <mxGeometry x="660" y="835" width="150" height="75" as="geometry" />
        </mxCell>
        <mxCell id="c7JR0-62WhPeYaqDhO3e-22" style="edgeStyle=none;rounded=0;orthogonalLoop=1;jettySize=auto;html=1;exitX=0;exitY=0.5;exitDx=0;exitDy=0;entryX=1;entryY=0.5;entryDx=0;entryDy=0;endArrow=block;endFill=0;strokeWidth=1.25;" edge="1" parent="1" source="ZGbzCy4regsN6U9j73BN-20" target="ZGbzCy4regsN6U9j73BN-7">
          <mxGeometry relative="1" as="geometry" />
        </mxCell>
        <mxCell id="ZGbzCy4regsN6U9j73BN-20" value="Modifier le profil" style="ellipse;whiteSpace=wrap;html=1;" parent="1" vertex="1">
          <mxGeometry x="334" y="-30" width="120" height="30" as="geometry" />
        </mxCell>
        <mxCell id="ZGbzCy4regsN6U9j73BN-23" value="Reserver un evenement" style="ellipse;whiteSpace=wrap;html=1;" parent="1" vertex="1">
          <mxGeometry x="557.5" y="765" width="120" height="80" as="geometry" />
        </mxCell>
        <mxCell id="ZGbzCy4regsN6U9j73BN-24" value="&lt;font style=&quot;font-size: 14px;&quot;&gt;&amp;lt;&amp;lt;include&amp;gt;&amp;gt;&lt;/font&gt;" style="edgeStyle=none;rounded=0;orthogonalLoop=1;jettySize=auto;html=1;exitX=1;exitY=0.5;exitDx=0;exitDy=0;entryX=0.056;entryY=0.727;entryDx=0;entryDy=0;entryPerimeter=0;dashed=1;fontSize=18;endArrow=open;endFill=0;" parent="1" source="ZGbzCy4regsN6U9j73BN-25" target="ZGbzCy4regsN6U9j73BN-23" edge="1">
          <mxGeometry x="-0.1234" y="6" relative="1" as="geometry">
            <mxPoint x="350" y="879.9999999999995" as="sourcePoint" />
            <mxPoint x="475.6400000000001" y="802.8800000000001" as="targetPoint" />
            <mxPoint as="offset" />
          </mxGeometry>
        </mxCell>
        <mxCell id="ZGbzCy4regsN6U9j73BN-25" value="Remboursement ticket" style="ellipse;whiteSpace=wrap;html=1;" parent="1" vertex="1">
          <mxGeometry x="290" y="740" width="120" height="55" as="geometry" />
        </mxCell>
        <mxCell id="ZGbzCy4regsN6U9j73BN-26" value="&lt;font style=&quot;font-size: 14px;&quot;&gt;&amp;lt;&amp;lt;include&amp;gt;&amp;gt;&lt;br&gt;&lt;/font&gt;" style="edgeStyle=none;rounded=0;orthogonalLoop=1;jettySize=auto;html=1;exitX=1;exitY=0.5;exitDx=0;exitDy=0;entryX=0.38;entryY=0.992;entryDx=0;entryDy=0;entryPerimeter=0;dashed=1;fontSize=18;endArrow=open;endFill=0;" parent="1" source="ZGbzCy4regsN6U9j73BN-28" target="ZGbzCy4regsN6U9j73BN-23" edge="1">
          <mxGeometry x="-0.0373" y="-4" relative="1" as="geometry">
            <mxPoint as="offset" />
          </mxGeometry>
        </mxCell>
        <mxCell id="ZGbzCy4regsN6U9j73BN-28" value="Télécharger code QR" style="ellipse;whiteSpace=wrap;html=1;" parent="1" vertex="1">
          <mxGeometry x="290" y="820" width="120" height="60" as="geometry" />
        </mxCell>
        <mxCell id="ZGbzCy4regsN6U9j73BN-31" value="Chercher des utilisateur" style="ellipse;whiteSpace=wrap;html=1;" parent="1" vertex="1">
          <mxGeometry x="306.5" y="910" width="120" height="80" as="geometry" />
        </mxCell>
        <mxCell id="ZGbzCy4regsN6U9j73BN-34" value="S&#39;authentifier" style="html=1;overflow=block;blockSpacing=1;whiteSpace=wrap;ellipse;fontSize=13;spacing=3.8;strokeColor=#5e5e5e;strokeOpacity=100;rounded=1;absoluteArcSize=1;arcSize=9;strokeWidth=2.3;lucidId=XvitAHHM73nt;" parent="1" vertex="1">
          <mxGeometry x="960" y="470" width="120" height="90" as="geometry" />
        </mxCell>
        <mxCell id="ZGbzCy4regsN6U9j73BN-35" value="&amp;lt;&amp;lt;extend&amp;gt;&amp;gt;" style="edgeStyle=none;rounded=0;orthogonalLoop=1;jettySize=auto;html=1;exitX=0.5;exitY=1;exitDx=0;exitDy=0;entryX=1;entryY=0;entryDx=0;entryDy=0;fontSize=14;endArrow=classic;endFill=1;dashed=1;" parent="1" source="ZGbzCy4regsN6U9j73BN-36" target="ZGbzCy4regsN6U9j73BN-34" edge="1">
          <mxGeometry relative="1" as="geometry" />
        </mxCell>
        <mxCell id="ZGbzCy4regsN6U9j73BN-36" value="Deconnecter" style="html=1;overflow=block;blockSpacing=1;whiteSpace=wrap;ellipse;fontSize=13;spacing=3.8;strokeColor=#5e5e5e;strokeOpacity=100;rounded=1;absoluteArcSize=1;arcSize=9;strokeWidth=2.3;lucidId=XvitmW9DInrr;" parent="1" vertex="1">
          <mxGeometry x="1160" y="310" width="120" height="90" as="geometry" />
        </mxCell>
        <mxCell id="c7JR0-62WhPeYaqDhO3e-25" style="edgeStyle=none;rounded=0;orthogonalLoop=1;jettySize=auto;html=1;exitX=0;exitY=0.5;exitDx=0;exitDy=0;endArrow=none;endFill=0;" edge="1" parent="1" source="ZGbzCy4regsN6U9j73BN-38">
          <mxGeometry relative="1" as="geometry">
            <mxPoint x="270" as="targetPoint" />
            <Array as="points">
              <mxPoint x="270" y="65" />
            </Array>
          </mxGeometry>
        </mxCell>
        <mxCell id="ZGbzCy4regsN6U9j73BN-38" value="Supprimer le profil" style="html=1;overflow=block;blockSpacing=1;whiteSpace=wrap;ellipse;fontSize=13;spacing=3.8;strokeColor=#121212;strokeOpacity=100;rounded=1;absoluteArcSize=1;arcSize=9;strokeWidth=1;lucidId=jtitNFk_JNwB;" parent="1" vertex="1">
          <mxGeometry x="334" y="50" width="120" height="30" as="geometry" />
        </mxCell>
        <mxCell id="c7JR0-62WhPeYaqDhO3e-1" value="Consulter la liste des évenements" style="ellipse;whiteSpace=wrap;html=1;" vertex="1" parent="1">
          <mxGeometry x="190" y="640" width="133.5" height="50" as="geometry" />
        </mxCell>
        <mxCell id="c7JR0-62WhPeYaqDhO3e-6" style="edgeStyle=none;rounded=0;orthogonalLoop=1;jettySize=auto;html=1;exitX=0;exitY=0.5;exitDx=0;exitDy=0;endArrow=block;endFill=0;entryX=0.942;entryY=0.716;entryDx=0;entryDy=0;entryPerimeter=0;" edge="1" parent="1" source="c7JR0-62WhPeYaqDhO3e-2" target="c7JR0-62WhPeYaqDhO3e-17">
          <mxGeometry relative="1" as="geometry">
            <mxPoint x="460" y="650" as="targetPoint" />
          </mxGeometry>
        </mxCell>
        <mxCell id="c7JR0-62WhPeYaqDhO3e-2" value="discuter avec l&#39;oganizateur pour feedback / réclamation" style="ellipse;whiteSpace=wrap;html=1;" vertex="1" parent="1">
          <mxGeometry x="620" y="630" width="130" height="80" as="geometry" />
        </mxCell>
        <mxCell id="c7JR0-62WhPeYaqDhO3e-3" value="Transfer Ticket pour un ami" style="ellipse;whiteSpace=wrap;html=1;" vertex="1" parent="1">
          <mxGeometry x="770" y="750" width="130" height="52.5" as="geometry" />
        </mxCell>
        <mxCell id="c7JR0-62WhPeYaqDhO3e-7" value="&amp;lt;&amp;lt;include&amp;gt;&amp;gt;" style="html=1;verticalAlign=bottom;labelBackgroundColor=none;endArrow=open;endFill=0;dashed=1;rounded=0;exitX=0;exitY=0.643;exitDx=0;exitDy=0;exitPerimeter=0;" edge="1" parent="1" source="c7JR0-62WhPeYaqDhO3e-3" target="ZGbzCy4regsN6U9j73BN-23">
          <mxGeometry width="160" relative="1" as="geometry">
            <mxPoint x="770" y="760" as="sourcePoint" />
            <mxPoint x="930" y="760" as="targetPoint" />
          </mxGeometry>
        </mxCell>
        <mxCell id="c7JR0-62WhPeYaqDhO3e-13" value="Partager un évenement" style="ellipse;whiteSpace=wrap;html=1;" vertex="1" parent="1">
          <mxGeometry x="444" y="715" width="130" height="40" as="geometry" />
        </mxCell>
        <mxCell id="c7JR0-62WhPeYaqDhO3e-14" style="edgeStyle=none;rounded=0;orthogonalLoop=1;jettySize=auto;html=1;exitX=0.385;exitY=0.037;exitDx=0;exitDy=0;endArrow=block;endFill=0;exitPerimeter=0;" edge="1" parent="1" source="c7JR0-62WhPeYaqDhO3e-13" target="c7JR0-62WhPeYaqDhO3e-17">
          <mxGeometry relative="1" as="geometry">
            <mxPoint x="509.9999999999998" y="700" as="sourcePoint" />
            <mxPoint x="426.7500000000007" y="675" as="targetPoint" />
          </mxGeometry>
        </mxCell>
        <mxCell id="c7JR0-62WhPeYaqDhO3e-17" value="Consulter un détail d&#39;un evenement" style="ellipse;whiteSpace=wrap;html=1;" vertex="1" parent="1">
          <mxGeometry x="400" y="640" width="133.5" height="50" as="geometry" />
        </mxCell>
        <mxCell id="c7JR0-62WhPeYaqDhO3e-19" value="&amp;lt;&amp;lt;include&amp;gt;&amp;gt;" style="html=1;verticalAlign=bottom;labelBackgroundColor=none;endArrow=open;endFill=0;dashed=1;rounded=0;entryX=1;entryY=0.5;entryDx=0;entryDy=0;" edge="1" parent="1" target="c7JR0-62WhPeYaqDhO3e-1">
          <mxGeometry width="160" relative="1" as="geometry">
            <mxPoint x="380" y="660" as="sourcePoint" />
            <mxPoint x="540" y="660" as="targetPoint" />
          </mxGeometry>
        </mxCell>
        <mxCell id="c7JR0-62WhPeYaqDhO3e-23" style="edgeStyle=none;rounded=0;orthogonalLoop=1;jettySize=auto;html=1;exitX=0;exitY=0.5;exitDx=0;exitDy=0;endArrow=none;endFill=0;" edge="1" parent="1" source="c7JR0-62WhPeYaqDhO3e-20">
          <mxGeometry relative="1" as="geometry">
            <mxPoint x="270" as="targetPoint" />
            <Array as="points">
              <mxPoint x="270" y="-55" />
            </Array>
          </mxGeometry>
        </mxCell>
        <mxCell id="c7JR0-62WhPeYaqDhO3e-20" value="Consulter mes achats" style="ellipse;whiteSpace=wrap;html=1;" vertex="1" parent="1">
          <mxGeometry x="330" y="-70" width="130" height="30" as="geometry" />
        </mxCell>
      </root>
    </mxGraphModel>
  </diagram>
</mxfile>
